# xmcd CD database file
#
# Track frame offsets:
#	150
#	15120
#	28896
#	44080
#	58797
#	74422
#
# Disc length: 1233 seconds
#
# Revision: 0
# Processed by: cddbd v1.5.2PL0 Copyright (c) Steve Scherf et al.
# Submitted via: CDex 1.51
#
DISCID=4f04cf06
DTITLE=William Michael Morgan - William Michael Morgan EP
DYEAR=2016
DGENRE=Country
TTITLE0=Vinyl
TTITLE1=Beer Drinker
TTITLE2=I Met A Girl
TTITLE3=Lonesomeville
TTITLE4=Cheap Cologne
TTITLE5=Back Seat Driver
EXTD=YEAR: 2016
EXTT0=
EXTT1=
EXTT2=
EXTT3=
EXTT4=
EXTT5=
PLAYORDER=
